PathFileType	4	(X/Y/Z)	C:\Users\WrightLab\Desktop\Jo\P4V131.trc
DataRate	CameraRate	NumFrames	NumMarkers	Units	OrigDataRate	OrigDataStartFrame	OrigNumFrames
100.00	100.00	       13	19	mm	100.00	187	       497
Frame#	Time	Headset_Front			Headset_Back			Headset_Left			Headset_Right			Left_Shoulder			Right_Shoulder			Sternum			C7			Left Elbow			Right Elbow			Left Wrist			Right Wrist			Left ASIS			Right ASIS			S2			Left Knee			Right Knee			Left Ankle			Right Ankle			
		X1	Y1	Z1	X2	Y2	Z2	X3	Y3	Z3	X4	Y4	Z4	X5	Y5	Z5	X6	Y6	Z6	X7	Y7	Z7	X8	Y8	Z8	X9	Y9	Z9	X10	Y10	Z10	X11	Y11	Z11	X12	Y12	Z12	X13	Y13	Z13	X14	Y14	Z14	X15	Y15	Z15	X16	Y16	Z16	X17	Y17	Z17	X18	Y18	Z18	X19	Y19	Z19	

187	1.860	-373.25873	1669.71448	143.09605	-493.14624	1027.56274	-138.51999							-279.01294	1492.23279	-83.70618	-578.60114	1500.64697	-15.00949	-394.81564	1436.03577	53.45052	-449.53818	1527.49646	-108.81690	-156.85953	1140.66431	-67.39471	-731.19495	1158.24158	17.53094	-181.71754	873.62744	94.13257	-717.13812	883.25787	159.20625	-278.38245	976.33740	-45.58933	-566.05255	1029.53711	117.49749				-331.44745	493.34146	-70.72237	-538.41992	565.89752	214.47070	-577.77148	224.59650	-415.80301	-525.90332	54.43800	161.82025	
188	1.870	-368.74524	1671.26160	154.29649	-489.27951	1029.02698	-127.06111							-276.16589	1494.74927	-75.18626	-575.06531	1503.03027	-2.54158	-389.83310	1437.30151	63.43947	-447.04788	1530.17773	-97.25787	-153.12720	1143.24219	-60.49734	-726.90540	1159.97900	32.67768	-175.99799	875.28186	99.51756	-710.41205	884.87134	173.12006	-274.37183	979.77747	-35.27959	-562.75513	1030.82275	128.17065				-319.84857	495.25769	-47.40701	-533.88306	565.00616	217.52383	-572.59149	239.54140	-392.60437	-525.06311	54.29093	161.72639	
189	1.880	-364.34924	1673.79907	165.42276	-485.38351	1031.24622	-116.96273							-273.43787	1497.39026	-66.83891	-571.21143	1505.26721	9.19605	-385.13443	1439.58618	73.69539	-443.67007	1532.35925	-85.53637	-148.99947	1145.84473	-53.54644	-722.45313	1162.08618	46.31398	-169.82097	876.93085	104.88033	-703.14496	886.54657	186.29102	-271.17743	982.32971	-23.06882	-559.51117	1032.57068	139.36095				-307.63892	498.58752	-25.06545	-529.64008	564.19098	220.56004	-568.15564	252.99940	-367.44418	-524.90173	54.82298	161.76976	
190	1.890	-360.10428	1675.78125	176.61871	-481.30957	1033.77698	-107.01155							-269.95563	1499.54211	-57.79145	-567.33063	1507.25378	22.70155	-380.33429	1442.03589	84.37935	-441.04214	1535.31531	-74.56657	-144.99149	1148.54041	-46.87907	-718.02551	1164.31348	61.70884	-164.24002	879.32495	109.39268	-695.97235	888.91626	199.56036	-267.20474	986.17188	-12.46637	-556.07269	1034.81763	150.50529				-295.39908	502.71997	-3.61538	-526.43347	564.12799	223.75841	-563.26807	264.54611	-343.18863	-524.48920	55.20753	161.91142	
191	1.900	-355.09238	1677.66516	187.32724	-477.49661	1035.72632	-96.30469							-266.18893	1501.93604	-46.54739	-563.17706	1509.76611	34.30263	-375.65353	1444.26599	94.29183	-438.12473	1537.58191	-63.56451	-140.84406	1151.24963	-42.18472	-713.25751	1166.75452	76.03734	-158.12196	881.91693	114.94250	-689.11584	891.09784	213.80507	-263.14359	989.48358	-3.04167	-552.19037	1036.63892	161.15607				-283.25494	506.92926	18.22578	-522.99762	564.35699	229.42844	-559.08832	274.15479	-319.42206	-524.44788	55.54214	161.96069	
192	1.910	-350.90414	1679.78955	198.39156	-473.50839	1038.46802	-86.39425							-263.88940	1504.87988	-40.17460	-559.00146	1512.33691	46.66697	-371.23807	1446.58777	103.72952	-434.89529	1540.34485	-52.10664	-137.02574	1154.15588	-37.16270	-708.18317	1169.23047	90.62530	-151.83093	884.91351	120.33910	-681.65375	893.53992	227.90500	-259.40442	993.42218	6.91738	-547.32910	1038.40796	171.59348				-270.51468	511.66336	40.50707	-520.18597	564.75073	236.43100	-553.57349	281.28275	-295.16675	-524.25891	56.04395	161.89754	
193	1.920	-346.13455	1681.37878	209.21324	-469.69626	1040.84985	-76.76267							-260.18427	1506.91028	-30.12422	-554.41718	1514.77112	58.26342	-365.82687	1448.66565	113.47941	-431.93079	1542.85327	-41.62215	-133.25987	1156.53577	-33.51017	-703.02887	1171.49866	105.77627	-145.06696	887.68774	125.73570	-674.01379	896.88190	242.61656	-255.35207	997.23260	14.87158	-542.49200	1040.12683	181.78447				-258.24796	517.23309	61.41500	-518.40308	564.92432	243.60770	-547.00092	286.88583	-269.97208	-523.83594	56.89462	162.35124	
194	1.930	-341.28452	1683.40039	219.79689	-466.41855	1042.98523	-66.27910							-256.55972	1510.08899	-21.62283	-550.46594	1517.18054	70.15932	-361.10858	1451.01099	122.97556	-428.80008	1545.10706	-31.17990	-129.07655	1158.69299	-29.42564	-697.96405	1173.99512	119.92449	-138.01164	891.13708	131.11575	-666.62024	899.41791	256.38831	-251.94458	1000.58966	24.35176	-537.62830	1041.54358	193.00276				-246.17444	523.68665	82.42465	-515.80585	564.25409	250.02885	-539.09906	290.19839	-245.80116	-523.56323	57.04609	162.46751	
195	1.940	-336.62476	1684.84326	230.37914	-463.02737	1045.02563	-55.53360							-254.21754	1511.67188	-14.74395	-546.28137	1519.67151	81.99745	-356.12384	1453.16919	132.12183	-425.51910	1547.95984	-20.89830	-125.50967	1161.00085	-26.43475	-692.86212	1176.49719	133.58907	-130.84439	892.87341	135.34859	-658.77979	902.03589	270.26593	-247.82414	1003.85052	32.92579	-532.75726	1043.13477	204.11299				-233.17773	530.41949	102.68505	-513.70416	564.35162	255.37675	-529.96667	292.66461	-219.55826	-522.92853	57.30169	162.53696	
196	1.950	-331.67883	1686.37341	240.71165	-460.01578	1046.68433	-45.54380							-251.58792	1514.12402	-7.31764	-541.72064	1521.97229	93.46176	-351.16046	1455.25061	141.75792	-422.40350	1549.98450	-10.88206	-122.04775	1163.06958	-22.98576	-687.54755	1179.05981	147.26199	-123.29305	896.24762	140.70604	-650.16913	904.66638	284.03009	-243.91919	1006.96539	40.94991	-527.61310	1044.54578	215.02519				-220.29106	538.01306	121.95718	-511.14456	563.64063	260.00479	-519.22888	293.67792	-193.26033	-522.60162	57.62096	162.60205	
197	1.960	-326.74716	1687.80164	250.99869	-457.09961	1048.36035	-35.64316							-247.57092	1516.41138	2.79453	-536.75647	1524.16968	105.57630	-346.39752	1457.56372	151.00137	-419.13605	1552.07788	-0.37645	-119.14079	1164.93005	-19.67064	-682.38416	1181.06873	161.01974	-115.68960	899.47357	145.98402	-641.99573	907.31549	297.91803	-240.50119	1009.70111	48.14513	-523.01996	1045.59387	225.90456				-207.51031	545.13641	141.82605	-508.56091	562.94775	263.44937	-507.63956	293.02728	-166.97562	-522.25110	57.81132	162.56493	
198	1.970	-321.90851	1688.72607	261.28204	-454.14661	1049.89319	-26.20626							-244.31508	1518.42114	10.86632	-532.37262	1526.39758	117.25262	-341.18414	1459.91248	160.19466	-415.76117	1553.88623	9.96064	-115.55652	1167.12195	-16.70175	-677.25043	1183.17590	174.62036	-107.68752	903.13147	151.80443	-633.87109	909.76233	312.03900	-236.85098	1012.51727	55.50819	-517.06708	1045.88696	236.00467				-194.85536	553.30933	161.23714	-505.14001	561.41321	266.35471	-495.47681	291.36810	-140.99304	-521.71411	58.07372	162.64880	
199	1.980	-316.85287	1689.71045	271.42108	-451.10098	1050.89233	-16.34738							-241.19493	1520.00525	18.27419	-527.46179	1528.22717	128.65729	-335.95590	1460.99121	168.96007	-412.30502	1555.49280	20.34573	-112.40424	1168.76685	-13.45026	-671.99908	1185.00781	188.34639	-100.28127	905.91168	156.38072	-625.74707	913.14758	326.58145	-232.51840	1016.79938	65.39368	-512.14612	1046.40186	247.24142				-182.35687	561.25079	179.29761	-502.31854	561.03613	269.43701	-481.96378	288.25790	-114.21272	-521.44763	58.11586	162.62822	
